<svg width="935" height="694" viewBox="0 0 935 694" fill="none" xmlns="http://www.w3.org/2000/svg">
<g opacity="0.5">
<g clip-path="url(#clip0)">
<path d="M53.1724 693.256L38 650.773C38 650.773 54.6897 659.118 55.4483 669.738C55.4483 669.738 51.6552 616.635 44.069 605.256C44.069 605.256 56.2069 606.773 69.8621 665.945C69.8621 665.945 72.1379 597.669 51.6552 577.945C51.6552 577.945 79.7242 600.704 82 650.014V693.256H53.1724Z" fill="#F2F2F2"/>
<path d="M565.5 692.628L575.5 664.628C575.5 664.628 564.5 670.128 564 677.128C564 677.128 566.5 642.128 571.5 634.628C571.5 634.628 563.5 635.628 554.5 674.628C554.5 674.628 553 629.628 566.5 616.628C566.5 616.628 548 631.628 546.5 664.128V692.628H565.5Z" fill="#F2F2F2"/>
<path d="M405.431 692.628L397.5 670.421C397.5 670.421 406.224 674.783 406.621 680.335C406.621 680.335 404.638 652.576 400.672 646.628C400.672 646.628 407.017 647.421 414.155 678.352C414.155 678.352 415.345 642.662 404.638 632.352C404.638 632.352 419.31 644.248 420.5 670.024V692.628H405.431Z" fill="#F2F2F2"/>
<path d="M396.608 540.999C392.608 540.999 388.584 540.871 384.623 540.619L384.75 538.623C388.674 538.873 392.659 539 396.598 539L396.716 538.999V540.999L396.622 541L396.608 540.999ZM408.814 540.602L408.684 538.606C412.65 538.347 416.659 537.955 420.598 537.44L420.857 539.422C416.876 539.944 412.824 540.34 408.814 540.602ZM372.577 539.456C368.589 538.938 364.57 538.283 360.633 537.506L361.02 535.543C364.914 536.312 368.89 536.96 372.835 537.471L372.577 539.456ZM432.799 537.458L432.41 535.497C436.307 534.723 440.229 533.81 444.068 532.783L444.586 534.714C440.705 535.753 436.739 536.676 432.799 537.457V537.458ZM348.843 534.777C344.968 533.745 341.069 532.568 337.257 531.278L337.897 529.383C341.669 530.659 345.525 531.824 349.357 532.844L348.843 534.777ZM456.167 531.2L455.524 529.305C459.275 528.031 463.037 526.613 466.706 525.089L467.474 526.937C463.764 528.476 459.96 529.911 456.167 531.2ZM325.909 527.014C322.198 525.479 318.484 523.797 314.871 522.015L315.755 520.222C319.33 521.984 323.003 523.648 326.674 525.166L325.909 527.014ZM478.48 521.938L477.594 520.145C481.156 518.383 484.703 516.483 488.136 514.497L489.138 516.227C485.667 518.236 482.082 520.158 478.48 521.938ZM304.187 516.302C300.706 514.291 297.247 512.138 293.904 509.903L295.015 508.241C298.322 510.452 301.745 512.582 305.187 514.57L304.187 516.302ZM499.401 509.829L498.288 508.166C501.585 505.96 504.855 503.613 508.01 501.188L509.228 502.774C506.04 505.225 502.733 507.598 499.401 509.829ZM284.062 502.847C280.876 500.402 277.727 497.818 274.703 495.167L276.021 493.664C279.013 496.286 282.128 498.841 285.28 501.261L284.062 502.847ZM518.579 495.092L517.259 493.589C520.245 490.967 523.185 488.213 525.996 485.403L527.41 486.817C524.568 489.658 521.598 492.442 518.579 495.092ZM265.865 486.896C263.02 484.056 260.234 481.087 257.584 478.07L259.086 476.75C261.708 479.734 264.464 482.672 267.278 485.481L265.865 486.896ZM535.687 477.984L534.184 476.665C536.807 473.676 539.365 470.563 541.787 467.411L543.373 468.63C540.925 471.816 538.339 474.963 535.687 477.984ZM249.896 468.726C247.447 465.542 245.071 462.238 242.834 458.903L244.496 457.789C246.707 461.088 249.058 464.357 251.481 467.506L249.896 468.726ZM550.436 458.792L548.773 457.68C550.986 454.373 553.118 450.952 555.109 447.511L556.84 448.513C554.827 451.991 552.673 455.45 550.436 458.792ZM236.43 448.644C234.415 445.167 232.491 441.583 230.712 437.99L232.504 437.102C234.264 440.656 236.167 444.202 238.16 447.641L236.43 448.644ZM562.56 437.833L560.767 436.947C562.527 433.383 564.193 429.711 565.719 426.032L567.566 426.798C566.024 430.517 564.34 434.23 562.56 437.833ZM225.706 426.986C224.165 423.28 222.728 419.477 221.435 415.682L223.329 415.038C224.607 418.79 226.028 422.553 227.553 426.219L225.706 426.986ZM571.838 415.454L569.943 414.812C571.22 411.046 572.387 407.191 573.412 403.354L575.344 403.87C574.308 407.75 573.128 411.647 571.838 415.454ZM217.913 404.104C216.871 400.224 215.945 396.258 215.16 392.318L217.122 391.928C217.897 395.825 218.813 399.747 219.844 403.585L217.913 404.104ZM578.08 392.081L576.117 391.693C576.889 387.795 577.54 383.821 578.054 379.879L580.036 380.138C579.518 384.123 578.858 388.141 578.08 392.081ZM213.189 380.379C212.666 376.406 212.267 372.354 212.001 368.337L213.997 368.205C214.259 372.18 214.655 376.187 215.172 380.118L213.189 380.379ZM581.209 368.094L579.213 367.965C579.468 364.013 579.598 359.988 579.598 356L579.597 355.525H581.597L581.598 355.994C581.598 360.03 581.467 364.099 581.209 368.094ZM213.597 356.239H211.597L211.597 355.994C211.597 352.053 211.723 348.065 211.971 344.146L213.967 344.272C213.722 348.149 213.597 352.095 213.597 356L213.597 356.239ZM579.182 343.561C578.916 339.594 578.516 335.586 577.992 331.649L579.975 331.386C580.504 335.366 580.908 339.417 581.178 343.427L579.182 343.561ZM215.11 332.355L213.127 332.1C213.641 328.115 214.294 324.096 215.067 320.154L217.03 320.54C216.265 324.438 215.619 328.414 215.11 332.355ZM576.025 319.841C575.245 315.946 574.324 312.026 573.288 308.188L575.22 307.667C576.267 311.547 577.197 315.511 577.986 319.449L576.025 319.841ZM219.722 308.875L217.789 308.362C218.821 304.476 219.997 300.577 221.282 296.773L223.176 297.413C221.905 301.175 220.743 305.032 219.722 308.875ZM569.789 296.74C568.505 292.984 567.079 289.224 565.551 285.564L567.396 284.794C568.941 288.494 570.383 292.295 571.682 296.092L569.789 296.74ZM227.385 286.188L225.536 285.424C227.071 281.708 228.751 277.993 230.529 274.382L232.323 275.266C230.564 278.837 228.903 282.512 227.385 286.188ZM560.585 274.688C558.825 271.142 556.918 267.599 554.916 264.156L556.645 263.151C558.669 266.631 560.597 270.214 562.376 273.798L560.585 274.688ZM237.967 264.693L236.235 263.694C238.242 260.214 240.393 256.753 242.627 253.407L244.29 254.517C242.08 257.828 239.953 261.251 237.967 264.693ZM548.567 254.015C546.349 250.715 543.994 247.449 541.569 244.307L543.153 243.085C545.604 246.261 547.984 249.563 550.228 252.898L548.567 254.015ZM251.264 244.777L249.676 243.56C252.122 240.37 254.704 237.219 257.351 234.196L258.855 235.513C256.237 238.504 253.683 241.621 251.264 244.777ZM533.952 235.073C531.328 232.095 528.569 229.161 525.749 226.352L527.161 224.935C530.011 227.774 532.801 230.74 535.452 233.75L533.952 235.073ZM267.032 226.764L265.616 225.352C268.454 222.507 271.421 219.719 274.437 217.066L275.758 218.567C272.775 221.192 269.839 223.95 267.032 226.764ZM516.995 218.181C513.999 215.562 510.881 213.009 507.728 210.595L508.942 209.007C512.131 211.447 515.283 214.027 518.311 216.675L516.995 218.181ZM284.997 210.956L283.776 209.372C286.957 206.921 290.26 204.543 293.594 202.304L294.709 203.964C291.411 206.179 288.143 208.532 284.997 210.956ZM497.982 203.628C494.674 201.422 491.248 199.297 487.802 197.312L488.8 195.578C492.284 197.585 495.747 199.734 499.092 201.964L497.982 203.628ZM304.854 197.622L303.851 195.893C307.32 193.878 310.903 191.952 314.5 190.167L315.389 191.959C311.831 193.725 308.287 195.63 304.854 197.622ZM477.226 191.674C473.653 189.917 469.978 188.259 466.302 186.743L467.063 184.894C470.781 186.426 474.497 188.104 478.108 189.879L477.226 191.674ZM326.27 187.001L325.5 185.155C329.206 183.611 333.008 182.172 336.802 180.877L337.448 182.77C333.696 184.051 329.935 185.475 326.27 187.001ZM455.072 182.541C451.307 181.272 447.449 180.112 443.608 179.094L444.12 177.161C448.004 178.19 451.903 179.362 455.711 180.645L455.072 182.541ZM348.898 179.278L348.379 177.347C352.256 176.303 356.221 175.374 360.161 174.587L360.554 176.548C356.655 177.327 352.734 178.246 348.898 179.278L348.898 179.278ZM431.941 176.411C428.047 175.648 424.071 175.005 420.125 174.498L420.379 172.515C424.368 173.027 428.388 173.677 432.326 174.448L431.941 176.411ZM372.362 174.59L372.101 172.608C376.073 172.082 380.124 171.68 384.143 171.413L384.275 173.408C380.301 173.673 376.292 174.071 372.362 174.59V174.59ZM408.208 173.362C404.369 173.122 400.463 173 396.598 173L396.241 173V171L396.594 171C400.505 171 404.453 171.123 408.333 171.366L408.208 173.362Z" fill="#E6E6E6"/>
<path d="M692.608 370C688.608 370 684.584 369.871 680.623 369.619L680.75 367.623C684.674 367.873 688.659 368 692.598 368L692.716 367.999V369.999L692.622 370L692.608 370ZM704.814 369.602L704.684 367.606C708.65 367.347 712.659 366.955 716.598 366.44L716.857 368.422C712.876 368.944 708.824 369.34 704.814 369.602ZM668.577 368.456C664.589 367.938 660.57 367.283 656.633 366.506L657.02 364.543C660.914 365.312 664.89 365.96 668.835 366.471L668.577 368.456ZM728.799 366.458L728.41 364.497C732.307 363.723 736.229 362.81 740.068 361.783L740.586 363.714C736.705 364.753 732.739 365.676 728.799 366.458V366.458ZM644.843 363.777C640.968 362.745 637.069 361.568 633.257 360.278L633.897 358.383C637.669 359.659 641.525 360.824 645.357 361.844L644.843 363.777ZM752.167 360.2L751.524 358.305C755.275 357.031 759.037 355.613 762.706 354.089L763.474 355.937C759.764 357.476 755.96 358.911 752.167 360.2ZM621.909 356.014C618.198 354.479 614.484 352.797 610.871 351.015L611.755 349.222C615.33 350.984 619.003 352.648 622.674 354.167L621.909 356.014ZM774.48 350.938L773.594 349.145C777.156 347.383 780.703 345.483 784.136 343.497L785.138 345.227C781.667 347.236 778.082 349.158 774.48 350.938ZM600.188 345.302C596.706 343.292 593.247 341.138 589.904 338.903L591.015 337.241C594.322 339.452 597.745 341.582 601.188 343.57L600.188 345.302ZM795.401 338.829L794.288 337.167C797.585 334.96 800.855 332.613 804.01 330.188L805.229 331.774C802.04 334.225 798.733 336.598 795.401 338.829ZM580.062 331.847C576.876 329.402 573.727 326.818 570.703 324.167L572.021 322.664C575.013 325.286 578.128 327.841 581.28 330.261L580.062 331.847ZM814.579 324.092L813.259 322.589C816.245 319.967 819.185 317.213 821.996 314.403L823.41 315.817C820.568 318.658 817.598 321.442 814.579 324.092ZM561.865 315.896C559.021 313.056 556.234 310.087 553.584 307.07L555.086 305.75C557.709 308.734 560.464 311.672 563.278 314.481L561.865 315.896ZM831.688 306.984L830.184 305.665C832.807 302.676 835.365 299.563 837.787 296.411L839.373 297.63C836.925 300.816 834.339 303.963 831.688 306.984ZM545.896 297.726C543.447 294.542 541.071 291.238 538.834 287.903L540.496 286.789C542.708 290.088 545.058 293.357 547.481 296.506L545.896 297.726ZM846.436 287.792L844.773 286.68C846.986 283.373 849.118 279.952 851.109 276.511L852.84 277.513C850.827 280.991 848.673 284.45 846.436 287.792ZM532.43 277.644C530.415 274.167 528.491 270.583 526.712 266.99L528.504 266.102C530.264 269.656 532.167 273.202 534.16 276.641L532.43 277.644ZM858.56 266.833L856.767 265.947C858.527 262.383 860.193 258.711 861.719 255.032L863.566 255.798C862.024 259.517 860.34 263.23 858.56 266.833ZM521.706 255.986C520.165 252.28 518.728 248.477 517.435 244.682L519.329 244.038C520.607 247.791 522.028 251.553 523.553 255.219L521.706 255.986ZM867.838 244.454L865.943 243.812C867.22 240.046 868.387 236.191 869.412 232.354L871.344 232.87C870.308 236.75 869.128 240.647 867.838 244.454ZM513.913 233.104C512.871 229.224 511.945 225.258 511.16 221.318L513.122 220.928C513.897 224.825 514.813 228.747 515.844 232.585L513.913 233.104ZM874.08 221.081L872.117 220.693C872.889 216.795 873.54 212.821 874.054 208.879L876.036 209.138C875.518 213.123 874.858 217.141 874.08 221.081ZM509.189 209.379C508.666 205.406 508.267 201.354 508.001 197.337L509.997 197.205C510.259 201.18 510.655 205.187 511.172 209.118L509.189 209.379ZM877.209 197.094L875.213 196.965C875.468 193.013 875.598 188.988 875.598 185L875.597 184.525H877.597L877.598 184.994C877.598 189.03 877.467 193.099 877.209 197.094V197.094ZM509.597 185.239H507.597L507.597 184.994C507.597 181.053 507.723 177.065 507.971 173.146L509.967 173.272C509.722 177.149 509.597 181.095 509.597 185L509.597 185.239ZM875.182 172.561C874.916 168.594 874.516 164.586 873.992 160.649L875.975 160.386C876.504 164.366 876.908 168.417 877.178 172.427L875.182 172.561ZM511.11 161.355L509.127 161.1C509.641 157.115 510.294 153.096 511.067 149.154L513.03 149.54C512.265 153.438 511.619 157.414 511.11 161.355ZM872.025 148.841C871.245 144.946 870.324 141.026 869.288 137.188L871.22 136.667C872.267 140.547 873.197 144.511 873.986 148.449L872.025 148.841ZM515.722 137.875L513.789 137.362C514.821 133.476 515.997 129.577 517.282 125.773L519.176 126.413C517.905 130.175 516.743 134.032 515.722 137.875ZM865.789 125.74C864.505 121.984 863.079 118.224 861.551 114.564L863.396 113.794C864.941 117.494 866.383 121.295 867.682 125.092L865.789 125.74ZM523.385 115.188L521.536 114.424C523.071 110.708 524.751 106.993 526.529 103.382L528.323 104.266C526.564 107.837 524.903 111.512 523.385 115.188ZM856.585 103.688C854.825 100.142 852.918 96.5991 850.916 93.1558L852.645 92.1509C854.669 95.6313 856.597 99.2139 858.376 102.798L856.585 103.688ZM533.967 93.6934L532.235 92.6944C534.242 89.2144 536.393 85.753 538.627 82.4068L540.29 83.5171C538.08 86.8276 535.953 90.2515 533.967 93.6934ZM844.567 83.0146C842.349 79.7149 839.994 76.4487 837.569 73.3067L839.153 72.085C841.604 75.2612 843.984 78.563 846.228 81.8984L844.567 83.0146ZM547.264 73.7769L545.676 72.5601C548.122 69.3701 550.704 66.2192 553.351 63.1958L554.855 64.5132C552.237 67.5044 549.683 70.6211 547.264 73.7769ZM829.952 64.0728C827.328 61.0948 824.569 58.1607 821.749 55.3516L823.161 53.9346C826.011 56.7739 828.801 59.7402 831.452 62.7505L829.952 64.0728ZM563.032 55.7642L561.616 54.3521C564.454 51.5073 567.421 48.7192 570.437 46.0659L571.758 47.5669C568.775 50.1924 565.839 52.9502 563.032 55.7642ZM812.995 47.1812C809.999 44.5615 806.881 42.0093 803.728 39.5952L804.942 38.0073C808.131 40.4473 811.283 43.0273 814.312 45.6753L812.995 47.1812ZM580.997 39.9561L579.776 38.3721C582.957 35.9209 586.26 33.543 589.594 31.3042L590.709 32.9644C587.411 35.1792 584.143 37.5318 580.997 39.9561ZM793.982 32.6279C790.674 30.4219 787.248 28.2969 783.802 26.3115L784.8 24.5781C788.284 26.5855 791.747 28.7339 795.092 30.9639L793.982 32.6279ZM600.854 26.6221L599.851 24.8926C603.32 22.8784 606.903 20.9522 610.5 19.1675L611.389 20.9595C607.831 22.7246 604.287 24.6299 600.854 26.6221ZM773.226 20.6738C769.653 18.9175 765.979 17.2588 762.302 15.7427L763.063 13.8941C766.781 15.4263 770.497 17.1035 774.108 18.8789L773.226 20.6738ZM622.27 16.001L621.5 14.1548C625.206 12.6113 629.008 11.1719 632.802 9.87696L633.448 11.7695C629.696 13.0508 625.935 14.4746 622.27 16.001ZM751.072 11.541C747.307 10.272 743.449 9.11227 739.608 8.0942L740.12 6.16061C744.004 7.18991 747.903 8.36227 751.711 9.64547L751.072 11.541ZM644.898 8.27829L644.379 6.34665C648.256 5.30265 652.221 4.37448 656.161 3.58688L656.554 5.54782C652.655 6.32715 648.734 7.24562 644.898 8.27834V8.27829ZM727.941 5.41061C724.047 4.6484 720.071 4.00534 716.125 3.4985L716.379 1.5151C720.368 2.02682 724.388 2.67721 728.326 3.44772L727.941 5.41061ZM668.362 3.5903L668.101 1.60788C672.073 1.08249 676.124 0.68014 680.143 0.41256L680.275 2.40817C676.301 2.67286 672.292 3.07079 668.362 3.59034V3.5903ZM704.208 2.3623C700.369 2.12207 696.463 2 692.598 2L692.241 2.00048V0.000480652L692.594 0C696.505 0 700.453 0.123001 704.333 0.366211L704.208 2.3623Z" fill="#E6E6E6"/>
<path d="M224.132 136.256H224.132C196.414 136.256 176.235 155.076 169.433 181.946L161 222.256H167L180 189.256L177.263 222.256H184L189 205.256L187.947 222.256H269V181.124C269 175.232 267.839 169.397 265.585 163.953C263.33 158.51 260.025 153.564 255.858 149.397C251.692 145.231 246.746 141.926 241.302 139.671C235.858 137.416 230.024 136.256 224.132 136.256Z" fill="#2F2E41"/>
<path d="M212.5 188.756C212.5 188.756 216.5 212.756 206.5 216.756C196.5 220.756 195.5 220.756 195.5 220.756L213.5 275.756L235.5 282.756L259.5 217.756L248.5 212.756C248.5 212.756 237.5 197.756 241.5 188.756H212.5Z" fill="#A0616A"/>
<path d="M177.5 377.756C177.5 377.756 157.5 401.756 162.5 484.756L161.5 508.756C161.5 508.756 109.5 643.756 143.5 650.756C177.5 657.756 180.5 662.756 183.5 654.756C186.5 646.756 234.5 462.756 234.5 462.756C234.5 462.756 273.5 653.756 292.5 651.756C311.5 649.756 336.5 655.756 335.5 640.756C334.5 625.756 311.5 510.756 311.5 510.756C311.5 510.756 306.5 373.756 280.5 365.756C254.5 357.756 201.5 354.756 177.5 377.756Z" fill="#2F2E41"/>
<path d="M151.5 643.756L142.5 666.756C142.5 666.756 126.5 688.756 136.5 691.756C146.5 694.756 160.5 686.756 160.5 686.756C160.5 686.756 168.5 656.756 168.5 648.756L151.5 643.756Z" fill="#2F2E41"/>
<path d="M317.5 643.756L326.5 666.756C326.5 666.756 342.5 688.756 332.5 691.756C322.5 694.756 308.5 686.756 308.5 686.756C308.5 686.756 300.5 656.756 300.5 648.756L317.5 643.756Z" fill="#2F2E41"/>
<path d="M225.5 200.756C239.307 200.756 250.5 189.563 250.5 175.756C250.5 161.948 239.307 150.756 225.5 150.756C211.693 150.756 200.5 161.948 200.5 175.756C200.5 189.563 211.693 200.756 225.5 200.756Z" fill="#A0616A"/>
<path d="M229.5 256.756C229.5 256.756 207.5 246.756 198.5 217.756L182.5 222.756C182.5 222.756 187.5 254.756 184.5 261.756C184.5 261.756 180.5 362.756 182.5 364.756C184.5 366.756 166.5 383.756 172.5 385.756C178.5 387.756 210.5 382.756 206.5 376.756L202.5 370.756L270.5 371.756C270.5 371.756 265.5 385.756 279.5 385.756C293.5 385.756 285.5 358.756 285.5 358.756L276.5 265.756C276.5 265.756 266.5 231.756 269.5 219.756L255.5 214.756C255.5 214.756 247.5 243.756 229.5 256.756Z" fill="#3F3D56"/>
<path d="M208.597 162L207.755 170H230.597L233.597 164L232.966 170H260.597L241.597 140L199.597 141L189.597 170H204.597L208.597 162Z" fill="#2F2E41"/>
<path d="M661 208.256H400V356.256H661V208.256Z" fill="#F2F2F2"/>
<path d="M454.5 266.256C467.755 266.256 478.5 255.51 478.5 242.256C478.5 229.001 467.755 218.256 454.5 218.256C441.245 218.256 430.5 229.001 430.5 242.256C430.5 255.51 441.245 266.256 454.5 266.256Z" fill="white"/>
<path d="M630.5 238.256H492.5V246.256H630.5V238.256Z" fill="white"/>
<path d="M630.5 258.256H492.5V266.256H630.5V258.256Z" fill="white"/>
<path d="M630.5 278.256H430.5V286.256H630.5V278.256Z" fill="white"/>
<path d="M630.5 298.256H430.5V306.256H630.5V298.256Z" fill="white"/>
<path d="M630.5 318.256H430.5V326.256H630.5V318.256Z" fill="white"/>
<path d="M630.5 338.256H430.5V346.256H630.5V338.256Z" fill="white"/>
<path d="M567.409 357.256H399V207.256H662V266.204H660V209.256H401V355.256H567.409V357.256Z" fill="#3F3D56"/>
<path d="M357 420.256H96V568.256H357V420.256Z" fill="#F2F2F2"/>
<path d="M264.41 569.256H96V419.256H359V478.204H357V421.256H98V567.256H264.41V569.256Z" fill="#3F3D56"/>
<path d="M185 222.256C185 222.256 164 221.256 164 238.256C164 255.256 166 309.256 166 309.256L168 326.256L167 395.256C167 395.256 148 438.256 161 439.256C174 440.256 181 400.256 181 400.256L185 364.256C185 364.256 182.5 266.756 185.5 262.756L185 222.256Z" fill="#A0616A"/>
<path d="M269 219.256C269 219.256 290 218.256 290 235.256C290 252.256 288 306.256 288 306.256L286 323.256L287 392.256C287 392.256 306 435.256 293 436.256C280 437.256 273 397.256 273 397.256L269 361.256C269 361.256 271.5 263.756 268.5 259.756L269 219.256Z" fill="#A0616A"/>
<path d="M228 540.256C253.405 540.256 274 519.661 274 494.256C274 468.851 253.405 448.256 228 448.256C202.595 448.256 182 468.851 182 494.256C182 519.661 202.595 540.256 228 540.256Z" fill="#6C63FF"/>
<path d="M259 491.256H231V463.256H225V491.256H197V497.256H225V525.256H231V497.256H259V491.256Z" fill="white"/>
<path d="M673 158.256L934 158.256V10.2556L673 10.2556V158.256Z" fill="#F2F2F2"/>
<path d="M935 159.256H766.591V157.256H933V11.256H674V68.203H672V9.25598H935V159.256Z" fill="#3F3D56"/>
<path d="M904 26.2556H704V34.2556H904V26.2556Z" fill="white"/>
<path d="M904 44.2556H704V52.2556H904V44.2556Z" fill="white"/>
<path d="M904 62.2556H704V70.2556H904V62.2556Z" fill="white"/>
<path d="M904 80.2556H704V88.2556H904V80.2556Z" fill="white"/>
<path d="M904 98.2556H704V106.256H904V98.2556Z" fill="white"/>
<path d="M904 120.256H861V143.256H904V120.256Z" fill="white"/>
<path d="M799 691.256H0V693.256H799V691.256Z" fill="#2F2E41"/>
<path d="M657 371.256C668.046 371.256 677 362.301 677 351.256C677 340.21 668.046 331.256 657 331.256C645.954 331.256 637 340.21 637 351.256C637 362.301 645.954 371.256 657 371.256Z" fill="#6C63FF"/>
<path d="M670.478 349.951H658.304V337.777H655.696V349.951H643.522V352.56H655.696V364.734H658.304V352.56H670.478V349.951Z" fill="white"/>
<path d="M668 175.256C679.046 175.256 688 166.301 688 155.256C688 144.21 679.046 135.256 668 135.256C656.954 135.256 648 144.21 648 155.256C648 166.301 656.954 175.256 668 175.256Z" fill="#6C63FF"/>
<path d="M681.478 153.951H669.304V141.777H666.696V153.951H654.522V156.56H666.696V168.734H669.304V156.56H681.478V153.951Z" fill="white"/>
</g>
</g>
<defs>
<clipPath id="clip0">
<rect width="935" height="693.256" fill="white"/>
</clipPath>
</defs>
</svg>
