<svg width="1151" height="822" viewBox="0 0 1151 822" fill="none" xmlns="http://www.w3.org/2000/svg">
<g opacity="0.44">
<path d="M53.1969 167.364C63.3261 167.364 71.5374 159.151 71.5374 149.019C71.5374 138.888 63.3261 130.675 53.1969 130.675C43.0678 130.675 34.8564 138.888 34.8564 149.019C34.8564 159.151 43.0678 167.364 53.1969 167.364Z" fill="#E6E6E6"/>
<path d="M108.218 167.364C118.348 167.364 126.559 159.151 126.559 149.019C126.559 138.888 118.348 130.675 108.218 130.675C98.0892 130.675 89.8779 138.888 89.8779 149.019C89.8779 159.151 98.0892 167.364 108.218 167.364Z" fill="#E6E6E6"/>
<path d="M163.24 167.364C173.369 167.364 181.58 159.151 181.58 149.019C181.58 138.888 173.369 130.675 163.24 130.675C153.111 130.675 144.899 138.888 144.899 149.019C144.899 159.151 153.111 167.364 163.24 167.364Z" fill="#E6E6E6"/>
<path d="M218.261 167.364C228.391 167.364 236.602 159.151 236.602 149.019C236.602 138.888 228.391 130.675 218.261 130.675C208.132 130.675 199.921 138.888 199.921 149.019C199.921 159.151 208.132 167.364 218.261 167.364Z" fill="#E6E6E6"/>
<path d="M273.283 167.364C283.412 167.364 291.623 159.151 291.623 149.019C291.623 138.888 283.412 130.675 273.283 130.675C263.154 130.675 254.942 138.888 254.942 149.019C254.942 159.151 263.154 167.364 273.283 167.364Z" fill="#E6E6E6"/>
<path d="M328.304 167.364C338.433 167.364 346.645 159.151 346.645 149.019C346.645 138.888 338.433 130.675 328.304 130.675C318.175 130.675 309.964 138.888 309.964 149.019C309.964 159.151 318.175 167.364 328.304 167.364Z" fill="#E6E6E6"/>
<path d="M383.326 167.364C393.455 167.364 401.666 159.151 401.666 149.019C401.666 138.888 393.455 130.675 383.326 130.675C373.197 130.675 364.985 138.888 364.985 149.019C364.985 159.151 373.197 167.364 383.326 167.364Z" fill="#E6E6E6"/>
<path d="M425.707 171.359H10.8157C8.8369 171.356 6.93984 170.569 5.54065 169.169C4.14145 167.77 3.35438 165.873 3.35205 163.893V134.145C3.35437 132.166 4.14145 130.269 5.54065 128.869C6.93985 127.47 8.83689 126.682 10.8157 126.68H425.707C427.686 126.683 429.583 127.47 430.982 128.869C432.381 130.269 433.168 132.166 433.17 134.145V163.893C433.168 165.873 432.381 167.77 430.982 169.169C429.583 170.569 427.686 171.356 425.707 171.359ZM10.8157 129.666C9.62837 129.668 8.49009 130.14 7.65055 130.98C6.81101 131.819 6.33879 132.958 6.33749 134.145V163.893C6.33879 165.081 6.81101 166.219 7.65055 167.059C8.49009 167.899 9.62837 168.371 10.8157 168.372H425.707C426.894 168.371 428.032 167.899 428.872 167.059C429.711 166.219 430.184 165.081 430.185 163.893V134.145C430.184 132.958 429.711 131.819 428.872 130.98C428.032 130.14 426.894 129.668 425.707 129.666L10.8157 129.666Z" fill="#E6E6E6"/>
<path d="M99.6051 4.28922C100.742 4.29052 101.832 4.74284 102.636 5.54693C103.44 6.35102 103.892 7.44122 103.893 8.57837V101.525C103.892 102.662 103.44 103.752 102.636 104.556C101.832 105.361 100.742 105.813 99.6051 105.814H8.57663C7.43972 105.813 6.34974 105.361 5.54582 104.556C4.7419 103.752 4.28968 102.662 4.28838 101.525V8.57846C4.28968 7.4413 4.7419 6.35108 5.54582 5.54699C6.34974 4.7429 7.43972 4.29058 8.57663 4.28928H99.6051V4.28922ZM99.6051 6.16072e-05H8.57663C6.30197 6.16072e-05 4.12047 0.903857 2.51205 2.51263C0.903621 4.1214 0 6.30337 0 8.57852V101.525C0 103.8 0.903621 105.982 2.51205 107.591C4.12047 109.2 6.30197 110.103 8.57663 110.103H99.6051C101.88 110.103 104.061 109.2 105.67 107.591C107.278 105.982 108.182 103.8 108.182 101.525V8.57846C108.182 6.30331 107.278 4.12134 105.67 2.51257C104.061 0.903796 101.88 3.56935e-06 99.6051 0V6.16072e-05Z" fill="#E6E6E6"/>
<path d="M85.407 28.7208H24.6734C24.3907 28.7225 24.1105 28.6684 23.8489 28.5614C23.5872 28.4544 23.3493 28.2967 23.1488 28.0974C22.9483 27.898 22.7892 27.661 22.6806 27.4C22.572 27.1389 22.5161 26.859 22.5161 26.5762C22.5161 26.2935 22.572 26.0135 22.6806 25.7525C22.7892 25.4914 22.9483 25.2544 23.1488 25.0551C23.3493 24.8558 23.5872 24.6981 23.8489 24.5911C24.1105 24.4841 24.3907 24.4299 24.6734 24.4317H85.407C85.6896 24.4299 85.9699 24.4841 86.2315 24.5911C86.4932 24.6981 86.7311 24.8558 86.9316 25.0551C87.1321 25.2544 87.2912 25.4914 87.3998 25.7525C87.5084 26.0135 87.5643 26.2935 87.5643 26.5762C87.5643 26.859 87.5084 27.1389 87.3998 27.4C87.2912 27.661 87.1321 27.898 86.9316 28.0974C86.7311 28.2967 86.4932 28.4544 86.2315 28.5614C85.9699 28.6684 85.6896 28.7225 85.407 28.7208Z" fill="#6C63FF"/>
<path d="M85.407 43.908H24.6734C24.3907 43.9097 24.1105 43.8555 23.8489 43.7485C23.5872 43.6415 23.3493 43.4838 23.1488 43.2845C22.9483 43.0852 22.7892 42.8482 22.6806 42.5872C22.572 42.3261 22.5161 42.0462 22.5161 41.7634C22.5161 41.4807 22.572 41.2007 22.6806 40.9397C22.7892 40.6786 22.9483 40.4416 23.1488 40.2423C23.3493 40.043 23.5872 39.8853 23.8489 39.7783C24.1105 39.6713 24.3907 39.6171 24.6734 39.6188H85.407C85.6896 39.6171 85.9699 39.6713 86.2315 39.7783C86.4932 39.8853 86.7311 40.043 86.9316 40.2423C87.1321 40.4416 87.2912 40.6786 87.3998 40.9397C87.5084 41.2007 87.5643 41.4807 87.5643 41.7634C87.5643 42.0462 87.5084 42.3261 87.3998 42.5872C87.2912 42.8482 87.1321 43.0852 86.9316 43.2845C86.7311 43.4838 86.4932 43.6415 86.2315 43.7485C85.9699 43.8555 85.6896 43.9097 85.407 43.908Z" fill="#6C63FF"/>
<path d="M85.407 59.0942H24.6734C24.3907 59.0959 24.1105 59.0417 23.8489 58.9347C23.5872 58.8277 23.3493 58.67 23.1488 58.4707C22.9483 58.2714 22.7892 58.0344 22.6806 57.7733C22.572 57.5123 22.5161 57.2323 22.5161 56.9496C22.5161 56.6668 22.572 56.3869 22.6806 56.1258C22.7892 55.8648 22.9483 55.6278 23.1488 55.4284C23.3493 55.2291 23.5872 55.0714 23.8489 54.9644C24.1105 54.8574 24.3907 54.8033 24.6734 54.805H85.407C85.6896 54.8033 85.9699 54.8574 86.2315 54.9644C86.4932 55.0714 86.7311 55.2291 86.9316 55.4284C87.1321 55.6278 87.2912 55.8648 87.3998 56.1258C87.5084 56.3869 87.5643 56.6668 87.5643 56.9496C87.5643 57.2323 87.5084 57.5123 87.3998 57.7733C87.2912 58.0344 87.1321 58.2714 86.9316 58.4707C86.7311 58.67 86.4932 58.8277 86.2315 58.9347C85.9699 59.0417 85.6896 59.0959 85.407 59.0942Z" fill="#6C63FF"/>
<path d="M85.407 74.2813H24.6734C24.3907 74.2831 24.1105 74.2289 23.8489 74.1219C23.5872 74.0149 23.3493 73.8572 23.1488 73.6579C22.9483 73.4585 22.7892 73.2215 22.6806 72.9605C22.572 72.6994 22.5161 72.4195 22.5161 72.1367C22.5161 71.854 22.572 71.574 22.6806 71.313C22.7892 71.0519 22.9483 70.8149 23.1488 70.6156C23.3493 70.4163 23.5872 70.2586 23.8489 70.1516C24.1105 70.0446 24.3907 69.9904 24.6734 69.9922H85.407C85.6896 69.9904 85.9699 70.0446 86.2315 70.1516C86.4932 70.2586 86.7311 70.4163 86.9316 70.6156C87.1321 70.8149 87.2912 71.0519 87.3998 71.313C87.5084 71.574 87.5643 71.854 87.5643 72.1367C87.5643 72.4195 87.5084 72.6994 87.3998 72.9605C87.2912 73.2215 87.1321 73.4585 86.9316 73.6579C86.7311 73.8572 86.4932 74.0149 86.2315 74.1219C85.9699 74.2289 85.6896 74.2831 85.407 74.2813Z" fill="#6C63FF"/>
<path d="M85.407 89.4685H24.6734C24.1048 89.4685 23.5594 89.2426 23.1573 88.8404C22.7552 88.4382 22.5293 87.8927 22.5293 87.3239C22.5293 86.7551 22.7552 86.2096 23.1573 85.8074C23.5594 85.4052 24.1048 85.1793 24.6734 85.1793H85.407C85.9757 85.1793 86.521 85.4052 86.9231 85.8074C87.3252 86.2096 87.5511 86.7551 87.5511 87.3239C87.5511 87.8927 87.3252 88.4382 86.9231 88.8404C86.521 89.2426 85.9757 89.4685 85.407 89.4685Z" fill="#6C63FF"/>
<path d="M410.507 4.28922C411.644 4.29052 412.734 4.74284 413.538 5.54693C414.342 6.35102 414.794 7.44122 414.796 8.57837V101.525C414.794 102.662 414.342 103.752 413.538 104.556C412.734 105.361 411.644 105.813 410.507 105.814H319.479C318.342 105.813 317.252 105.361 316.448 104.556C315.644 103.752 315.192 102.662 315.191 101.525V8.57846C315.192 7.4413 315.644 6.35108 316.448 5.54699C317.252 4.7429 318.342 4.29058 319.479 4.28928H410.507V4.28922ZM410.507 6.16072e-05H319.479C317.204 6.16072e-05 315.023 0.903857 313.414 2.51263C311.806 4.1214 310.902 6.30337 310.902 8.57852V101.525C310.902 103.8 311.806 105.982 313.414 107.591C315.023 109.2 317.204 110.103 319.479 110.103H410.507C412.782 110.103 414.964 109.2 416.572 107.591C418.18 105.982 419.084 103.8 419.084 101.525V8.57846C419.084 6.30331 418.18 4.12134 416.572 2.51257C414.964 0.903796 412.782 0 410.507 0V6.16072e-05Z" fill="#E6E6E6"/>
<path d="M396.309 28.7208H335.575C335.293 28.7225 335.012 28.6684 334.751 28.5614C334.489 28.4544 334.251 28.2967 334.051 28.0974C333.85 27.898 333.691 27.661 333.582 27.4C333.474 27.1389 333.418 26.859 333.418 26.5762C333.418 26.2935 333.474 26.0135 333.582 25.7525C333.691 25.4914 333.85 25.2544 334.051 25.0551C334.251 24.8558 334.489 24.6981 334.751 24.5911C335.012 24.4841 335.293 24.4299 335.575 24.4317H396.309C396.875 24.4351 397.417 24.6626 397.816 25.0644C398.216 25.4662 398.44 26.0097 398.44 26.5762C398.44 27.1427 398.216 27.6862 397.816 28.088C397.417 28.4899 396.875 28.7173 396.309 28.7208H396.309Z" fill="#6C63FF"/>
<path d="M396.309 43.908H335.575C335.293 43.9097 335.012 43.8555 334.751 43.7485C334.489 43.6415 334.251 43.4838 334.051 43.2845C333.85 43.0852 333.691 42.8482 333.582 42.5872C333.474 42.3261 333.418 42.0462 333.418 41.7634C333.418 41.4807 333.474 41.2007 333.582 40.9397C333.691 40.6786 333.85 40.4416 334.051 40.2423C334.251 40.043 334.489 39.8853 334.751 39.7783C335.012 39.6713 335.293 39.6171 335.575 39.6188H396.309C396.875 39.6223 397.417 39.8498 397.816 40.2516C398.216 40.6534 398.44 41.1969 398.44 41.7634C398.44 42.3299 398.216 42.8734 397.816 43.2752C397.417 43.677 396.875 43.9045 396.309 43.908H396.309Z" fill="#6C63FF"/>
<path d="M396.309 59.0942H335.575C335.293 59.0959 335.012 59.0417 334.751 58.9347C334.489 58.8277 334.251 58.67 334.051 58.4707C333.85 58.2714 333.691 58.0344 333.582 57.7733C333.474 57.5123 333.418 57.2323 333.418 56.9496C333.418 56.6668 333.474 56.3869 333.582 56.1258C333.691 55.8648 333.85 55.6278 334.051 55.4284C334.251 55.2291 334.489 55.0714 334.751 54.9644C335.012 54.8574 335.293 54.8033 335.575 54.805H396.309C396.875 54.8085 397.417 55.0359 397.816 55.4377C398.216 55.8396 398.44 56.3831 398.44 56.9496C398.44 57.5161 398.216 58.0596 397.816 58.4614C397.417 58.8632 396.875 59.0907 396.309 59.0942H396.309Z" fill="#6C63FF"/>
<path d="M396.309 74.2813H335.575C335.293 74.2831 335.012 74.2289 334.751 74.1219C334.489 74.0149 334.251 73.8572 334.051 73.6579C333.85 73.4585 333.691 73.2215 333.582 72.9605C333.474 72.6994 333.418 72.4195 333.418 72.1367C333.418 71.854 333.474 71.574 333.582 71.313C333.691 71.0519 333.85 70.8149 334.051 70.6156C334.251 70.4163 334.489 70.2586 334.751 70.1516C335.012 70.0446 335.293 69.9904 335.575 69.9922H396.309C396.875 69.9956 397.417 70.2231 397.816 70.6249C398.216 71.0267 398.44 71.5702 398.44 72.1367C398.44 72.7032 398.216 73.2467 397.816 73.6486C397.417 74.0504 396.875 74.2778 396.309 74.2813H396.309Z" fill="#6C63FF"/>
<path d="M396.309 89.4685H335.575C335.007 89.4685 334.461 89.2426 334.059 88.8404C333.657 88.4382 333.431 87.8927 333.431 87.3239C333.431 86.7551 333.657 86.2096 334.059 85.8074C334.461 85.4052 335.007 85.1793 335.575 85.1793H396.309C396.878 85.1793 397.423 85.4052 397.825 85.8074C398.227 86.2096 398.453 86.7551 398.453 87.3239C398.453 87.8927 398.227 88.4382 397.825 88.8404C397.423 89.2426 396.878 89.4685 396.309 89.4685H396.309Z" fill="#6C63FF"/>
<path d="M719.899 183.004C721.036 183.005 722.126 183.458 722.93 184.262C723.734 185.066 724.186 186.156 724.187 187.293V280.24C724.186 281.377 723.734 282.467 722.93 283.271C722.126 284.075 721.036 284.527 719.899 284.529H628.871C627.734 284.527 626.644 284.075 625.84 283.271C625.036 282.467 624.584 281.377 624.582 280.24V187.293C624.584 186.156 625.036 185.066 625.84 184.262C626.644 183.458 627.734 183.005 628.871 183.004H719.899V183.004ZM719.899 178.715H628.871C626.596 178.715 624.414 179.619 622.806 181.227C621.198 182.836 620.294 185.018 620.294 187.293V280.24C620.294 282.515 621.198 284.697 622.806 286.306C624.414 287.914 626.596 288.818 628.871 288.818H719.899C722.174 288.818 724.355 287.914 725.964 286.306C727.572 284.697 728.476 282.515 728.476 280.24V187.293C728.476 185.018 727.572 182.836 725.964 181.227C724.355 179.618 722.174 178.715 719.899 178.715V178.715Z" fill="#6C63FF"/>
<path d="M705.701 207.436H644.967C644.685 207.437 644.404 207.383 644.143 207.276C643.881 207.169 643.643 207.011 643.443 206.812C643.242 206.613 643.083 206.376 642.975 206.115C642.866 205.854 642.81 205.574 642.81 205.291C642.81 205.008 642.866 204.728 642.975 204.467C643.083 204.206 643.242 203.969 643.443 203.77C643.643 203.57 643.881 203.413 644.143 203.306C644.404 203.199 644.685 203.145 644.967 203.146H705.701C706.267 203.15 706.809 203.377 707.209 203.779C707.608 204.181 707.832 204.724 707.832 205.291C707.832 205.857 707.608 206.401 707.209 206.803C706.809 207.205 706.267 207.432 705.701 207.436Z" fill="#6C63FF"/>
<path d="M705.701 222.623H644.967C644.399 222.623 643.853 222.397 643.451 221.995C643.049 221.592 642.823 221.047 642.823 220.478C642.823 219.909 643.049 219.364 643.451 218.962C643.853 218.559 644.399 218.333 644.967 218.333H705.701C706.27 218.333 706.815 218.559 707.217 218.962C707.619 219.364 707.845 219.909 707.845 220.478C707.845 221.047 707.619 221.592 707.217 221.995C706.815 222.397 706.27 222.623 705.701 222.623Z" fill="#6C63FF"/>
<path d="M705.701 237.809H644.967C644.685 237.81 644.405 237.756 644.144 237.649C643.882 237.542 643.645 237.384 643.444 237.184C643.244 236.985 643.085 236.748 642.977 236.487C642.868 236.227 642.813 235.947 642.812 235.664C642.813 235.382 642.868 235.102 642.977 234.841C643.085 234.58 643.244 234.343 643.444 234.144C643.645 233.945 643.882 233.787 644.144 233.68C644.405 233.573 644.685 233.518 644.967 233.52H705.701C706.267 233.523 706.809 233.751 707.209 234.152C707.608 234.554 707.832 235.098 707.832 235.664C707.832 236.231 707.608 236.774 707.209 237.176C706.809 237.578 706.267 237.805 705.701 237.809Z" fill="#6C63FF"/>
<path d="M705.701 252.996H644.967C644.685 252.998 644.404 252.944 644.143 252.837C643.881 252.73 643.643 252.572 643.443 252.373C643.242 252.173 643.083 251.936 642.975 251.675C642.866 251.414 642.81 251.134 642.81 250.851C642.81 250.569 642.866 250.289 642.975 250.028C643.083 249.767 643.242 249.53 643.443 249.33C643.643 249.131 643.881 248.973 644.143 248.866C644.404 248.759 644.685 248.705 644.967 248.707H705.701C706.267 248.71 706.809 248.938 707.209 249.34C707.608 249.741 707.832 250.285 707.832 250.851C707.832 251.418 707.608 251.961 707.209 252.363C706.809 252.765 706.267 252.993 705.701 252.996Z" fill="#6C63FF"/>
<path d="M705.701 268.183H644.967C644.685 268.185 644.404 268.131 644.143 268.024C643.881 267.917 643.643 267.759 643.443 267.56C643.242 267.36 643.083 267.123 642.975 266.862C642.866 266.601 642.81 266.321 642.81 266.039C642.81 265.756 642.866 265.476 642.975 265.215C643.083 264.954 643.242 264.717 643.443 264.517C643.643 264.318 643.881 264.16 644.143 264.053C644.404 263.946 644.685 263.892 644.967 263.894H705.701C706.267 263.897 706.809 264.125 707.209 264.527C707.608 264.929 707.832 265.472 707.832 266.039C707.832 266.605 707.608 267.149 707.209 267.55C706.809 267.952 706.267 268.18 705.701 268.183Z" fill="#6C63FF"/>
<path d="M256.247 110.103H162.835C160.309 110.1 157.887 109.095 156.101 107.309C154.315 105.522 153.31 103.1 153.307 100.573V33.7172C153.31 31.1903 154.315 28.7678 156.101 26.9809C157.887 25.194 160.309 24.1888 162.835 24.1858H256.247C258.774 24.1886 261.196 25.1937 262.983 26.9806C264.769 28.7674 265.774 31.1902 265.777 33.7172V100.573C265.774 103.1 264.769 105.522 262.982 107.309C261.196 109.096 258.774 110.101 256.247 110.103ZM162.835 28.475C161.446 28.4768 160.114 29.0297 159.132 30.0124C158.149 30.9952 157.597 32.3275 157.595 33.7172V100.573C157.597 101.963 158.149 103.295 159.132 104.277C160.114 105.26 161.446 105.813 162.835 105.814H256.247C257.637 105.813 258.969 105.26 259.951 104.278C260.934 103.295 261.487 101.963 261.488 100.573V33.7172C261.487 32.3274 260.934 30.995 259.952 30.0123C258.969 29.0296 257.637 28.4767 256.247 28.475H162.835Z" fill="#E6E6E6"/>
<path d="M239.909 54.1026H179.175C178.609 54.0991 178.067 53.8716 177.668 53.4698C177.269 53.068 177.044 52.5245 177.044 51.958C177.044 51.3915 177.269 50.848 177.668 50.4462C178.067 50.0444 178.609 49.8169 179.175 49.8134H239.909C240.192 49.8117 240.472 49.8659 240.734 49.9729C240.995 50.0799 241.233 50.2375 241.434 50.4369C241.634 50.6362 241.793 50.8732 241.902 51.1342C242.01 51.3953 242.066 51.6752 242.066 51.958C242.066 52.2407 242.01 52.5207 241.902 52.7817C241.793 53.0428 241.634 53.2798 241.434 53.4791C241.233 53.6784 240.995 53.8361 240.734 53.9431C240.472 54.0501 240.192 54.1043 239.909 54.1026Z" fill="#6C63FF"/>
<path d="M239.909 69.2897H179.175C178.609 69.2863 178.067 69.0588 177.668 68.657C177.269 68.2552 177.044 67.7117 177.044 67.1452C177.044 66.5787 177.269 66.0352 177.668 65.6334C178.067 65.2315 178.609 65.0041 179.175 65.0006H239.909C240.192 64.9989 240.472 65.0531 240.734 65.16C240.995 65.267 241.233 65.4247 241.434 65.6241C241.634 65.8234 241.793 66.0604 241.902 66.3214C242.01 66.5825 242.066 66.8624 242.066 67.1452C242.066 67.4279 242.01 67.7079 241.902 67.9689C241.793 68.23 241.634 68.467 241.434 68.6663C241.233 68.8656 240.995 69.0233 240.734 69.1303C240.472 69.2373 240.192 69.2915 239.909 69.2897Z" fill="#6C63FF"/>
<path d="M239.909 84.4759H179.175C178.609 84.4724 178.067 84.2449 177.668 83.8431C177.269 83.4413 177.044 82.8978 177.044 82.3313C177.044 81.7648 177.269 81.2213 177.668 80.8195C178.067 80.4177 178.609 80.1902 179.175 80.1867H239.909C240.192 80.185 240.472 80.2392 240.734 80.3462C240.995 80.4532 241.233 80.6108 241.434 80.8102C241.634 81.0095 241.793 81.2465 241.902 81.5075C242.01 81.7686 242.066 82.0485 242.066 82.3313C242.066 82.614 242.01 82.894 241.902 83.155C241.793 83.4161 241.634 83.6531 241.434 83.8524C241.233 84.0517 240.995 84.2094 240.734 84.3164C240.472 84.4234 240.192 84.4776 239.909 84.4759Z" fill="#6C63FF"/>
<path d="M566.204 147.15L476.488 121.127C474.063 120.421 472.017 118.781 470.799 116.567C469.581 114.353 469.29 111.747 469.991 109.319L488.608 45.1092C489.314 42.6831 490.954 40.6362 493.167 39.4177C495.38 38.1992 497.986 37.9085 500.413 38.6094L590.129 64.6326C592.555 65.3391 594.601 66.9792 595.819 69.193C597.038 71.4069 597.328 74.0137 596.627 76.4415L578.01 140.652C577.304 143.078 575.664 145.124 573.45 146.343C571.237 147.561 568.631 147.851 566.204 147.15ZM499.219 42.7289C497.884 42.3435 496.451 42.5034 495.234 43.1736C494.017 43.8438 493.115 44.9695 492.727 46.3038L474.11 110.514C473.724 111.849 473.884 113.283 474.554 114.5C475.224 115.717 476.349 116.619 477.683 117.008L567.398 143.031C568.733 143.416 570.166 143.257 571.384 142.587C572.601 141.917 573.503 140.791 573.892 139.457L592.509 75.2468C592.894 73.9116 592.734 72.4779 592.064 71.2604C591.394 70.0428 590.269 69.1408 588.935 68.752L499.219 42.7289Z" fill="#E6E6E6"/>
<path d="M566.106 88.8137L507.776 71.8943C507.231 71.735 506.771 71.3659 506.498 70.868C506.224 70.37 506.16 69.784 506.318 69.2384C506.476 68.6928 506.844 68.2323 507.341 67.9579C507.839 67.6835 508.424 67.6177 508.97 67.7748L567.3 84.6943C567.847 84.8527 568.307 85.2216 568.582 85.7199C568.856 86.2182 568.921 86.805 568.762 87.3513C568.604 87.8976 568.235 88.3586 567.737 88.6328C567.239 88.9071 566.652 88.9722 566.106 88.8137H566.106Z" fill="#6C63FF"/>
<path d="M561.877 103.4L503.546 86.4805C503.276 86.4021 503.024 86.2711 502.804 86.0951C502.584 85.9191 502.401 85.7016 502.265 85.4548C502.129 85.2081 502.044 84.9371 502.013 84.6571C501.982 84.3772 502.006 84.0939 502.084 83.8234C502.163 83.553 502.294 83.3006 502.47 83.0807C502.646 82.8608 502.863 82.6777 503.11 82.5419C503.356 82.4061 503.628 82.3203 503.907 82.2892C504.187 82.2582 504.47 82.2826 504.741 82.361L563.071 99.2805C563.616 99.4398 564.076 99.8089 564.349 100.307C564.623 100.805 564.687 101.391 564.529 101.936C564.371 102.482 564.003 102.942 563.506 103.217C563.008 103.491 562.423 103.557 561.877 103.4Z" fill="#6C63FF"/>
<path d="M557.648 117.985L499.318 101.066C498.773 100.906 498.313 100.537 498.04 100.039C497.766 99.5415 497.702 98.9554 497.86 98.4098C498.018 97.8643 498.386 97.4038 498.883 97.1294C499.381 96.855 499.966 96.7891 500.512 96.9462L558.842 113.866C559.389 114.024 559.849 114.393 560.124 114.891C560.398 115.39 560.463 115.976 560.305 116.523C560.146 117.069 559.777 117.53 559.279 117.804C558.781 118.079 558.194 118.144 557.648 117.985Z" fill="#6C63FF"/>
<path d="M1151 817.963H210.047V822H1151V817.963Z" fill="#E6E6E6"/>
<path d="M756.382 811.65H603.369L608.556 744.208H751.195L756.382 811.65Z" fill="#E6E6E6"/>
<path d="M766.755 803.869H595.588V819.433H766.755V803.869Z" fill="#E6E6E6"/>
<path d="M972.933 309.713H388.113C383.986 309.713 380.028 311.353 377.11 314.272C374.192 317.191 372.553 321.149 372.553 325.277V681.951H988.494V325.277C988.494 323.233 988.091 321.209 987.309 319.321C986.527 317.433 985.381 315.717 983.936 314.272C982.491 312.826 980.776 311.68 978.888 310.898C977 310.116 974.977 309.713 972.933 309.713H972.933Z" fill="#3F3D56"/>
<path d="M372.553 681.951V740.316C372.553 742.36 372.955 744.384 373.737 746.272C374.519 748.161 375.665 749.876 377.11 751.322C378.555 752.767 380.271 753.913 382.159 754.695C384.046 755.478 386.07 755.88 388.113 755.88H972.933C977.06 755.88 981.018 754.24 983.936 751.322C986.854 748.403 988.494 744.444 988.494 740.316V681.951H372.553Z" fill="#E6E6E6"/>
<path d="M958.669 342.138H403.674V653.417H958.669V342.138Z" fill="#E6E6E6"/>
<path d="M681.172 733.831C689.766 733.831 696.733 726.863 696.733 718.267C696.733 709.671 689.766 702.703 681.172 702.703C672.578 702.703 665.611 709.671 665.611 718.267C665.611 726.863 672.578 733.831 681.172 733.831Z" fill="#3F3D56"/>
<path d="M420.979 355.286C422.61 355.286 423.932 353.963 423.932 352.332C423.932 350.701 422.61 349.378 420.979 349.378C419.348 349.378 418.026 350.701 418.026 352.332C418.026 353.963 419.348 355.286 420.979 355.286Z" fill="white"/>
<path d="M432.188 355.286C433.819 355.286 435.141 353.963 435.141 352.332C435.141 350.701 433.819 349.378 432.188 349.378C430.557 349.378 429.235 350.701 429.235 352.332C429.235 353.963 430.557 355.286 432.188 355.286Z" fill="white"/>
<path d="M443.397 355.286C445.028 355.286 446.35 353.963 446.35 352.332C446.35 350.701 445.028 349.378 443.397 349.378C441.766 349.378 440.444 350.701 440.444 352.332C440.444 353.963 441.766 355.286 443.397 355.286Z" fill="white"/>
<path d="M942.674 362.369H418.026V623.792H942.674V362.369Z" fill="white"/>
<path d="M452.901 402.132C452.409 402.133 451.938 402.329 451.59 402.676C451.242 403.024 451.047 403.496 451.046 403.988V497.759C451.047 498.251 451.242 498.723 451.59 499.071C451.938 499.418 452.409 499.614 452.901 499.615H561.169C561.661 499.614 562.132 499.418 562.48 499.071C562.828 498.723 563.023 498.251 563.024 497.759V403.988C563.023 403.496 562.828 403.024 562.48 402.676C562.132 402.329 561.661 402.133 561.169 402.132H452.901Z" fill="#E6E6E6"/>
<path d="M626.739 402.434C626.247 402.434 625.776 402.63 625.428 402.978C625.08 403.326 624.884 403.797 624.884 404.289V497.759C624.884 498.251 625.08 498.723 625.428 499.071C625.776 499.419 626.247 499.614 626.739 499.615H734.662C735.154 499.614 735.625 499.418 735.973 499.07C736.32 498.723 736.516 498.251 736.516 497.759V404.289C736.516 403.797 736.32 403.326 735.973 402.978C735.625 402.63 735.154 402.435 734.662 402.434H626.739Z" fill="#E6E6E6"/>
<path d="M798.754 401.454C798.262 401.455 797.791 401.651 797.443 401.998C797.096 402.346 796.9 402.818 796.9 403.309V497.759C796.9 498.251 797.096 498.723 797.443 499.07C797.791 499.418 798.262 499.614 798.754 499.615H907.799C908.291 499.614 908.762 499.418 909.11 499.07C909.457 498.723 909.653 498.251 909.653 497.759V403.309C909.653 402.818 909.457 402.346 909.11 401.998C908.762 401.651 908.291 401.455 907.799 401.454H798.754Z" fill="#E6E6E6"/>
<path d="M454.881 546.031C453.865 546.033 452.891 546.438 452.174 547.157C451.456 547.876 451.053 548.851 451.053 549.867C451.053 550.883 451.456 551.857 452.174 552.576C452.891 553.295 453.865 553.7 454.881 553.702H556.674C557.69 553.7 558.663 553.295 559.381 552.576C560.098 551.857 560.501 550.883 560.501 549.867C560.501 548.851 560.098 547.876 559.381 547.157C558.663 546.438 557.69 546.033 556.674 546.031H454.881Z" fill="#E6E6E6"/>
<path d="M454.88 564.275C453.865 564.277 452.891 564.682 452.173 565.401C451.456 566.12 451.053 567.095 451.053 568.111C451.053 569.127 451.456 570.101 452.173 570.82C452.891 571.539 453.865 571.944 454.88 571.946H500.712C501.728 571.944 502.702 571.539 503.419 570.82C504.137 570.101 504.54 569.127 504.54 568.111C504.54 567.095 504.137 566.12 503.419 565.401C502.702 564.682 501.728 564.277 500.712 564.275H454.88Z" fill="#6C63FF"/>
<path d="M630.587 546.031C629.571 546.033 628.597 546.438 627.88 547.157C627.162 547.876 626.759 548.851 626.759 549.867C626.759 550.883 627.162 551.857 627.88 552.576C628.597 553.295 629.571 553.7 630.587 553.702H732.38C733.396 553.7 734.369 553.295 735.087 552.576C735.804 551.857 736.207 550.883 736.207 549.867C736.207 548.851 735.804 547.876 735.087 547.157C734.369 546.438 733.396 546.033 732.38 546.031H630.587Z" fill="#E6E6E6"/>
<path d="M630.587 564.275C629.571 564.277 628.597 564.682 627.879 565.401C627.162 566.12 626.759 567.095 626.759 568.111C626.759 569.127 627.162 570.101 627.879 570.82C628.597 571.539 629.571 571.944 630.587 571.946H676.419C677.435 571.944 678.408 571.539 679.126 570.82C679.844 570.101 680.247 569.127 680.247 568.111C680.247 567.095 679.844 566.12 679.126 565.401C678.408 564.682 677.435 564.277 676.419 564.275H630.587Z" fill="#6C63FF"/>
<path d="M801.901 546.031C800.885 546.033 799.912 546.438 799.194 547.157C798.477 547.876 798.074 548.851 798.074 549.867C798.074 550.883 798.477 551.857 799.194 552.576C799.912 553.295 800.885 553.7 801.901 553.702H903.694C904.71 553.7 905.684 553.295 906.401 552.576C907.119 551.857 907.522 550.883 907.522 549.867C907.522 548.851 907.119 547.876 906.401 547.157C905.684 546.438 904.71 546.033 903.694 546.031H801.901Z" fill="#E6E6E6"/>
<path d="M454.881 527.19C453.865 527.191 452.891 527.596 452.174 528.316C451.456 529.035 451.053 530.009 451.053 531.025C451.053 532.041 451.456 533.015 452.174 533.734C452.891 534.454 453.865 534.859 454.881 534.86H556.674C557.69 534.859 558.663 534.454 559.381 533.734C560.098 533.015 560.501 532.041 560.501 531.025C560.501 530.009 560.098 529.035 559.381 528.316C558.663 527.596 557.69 527.191 556.674 527.19H454.881Z" fill="#E6E6E6"/>
<path d="M630.587 527.19C629.571 527.191 628.597 527.596 627.88 528.316C627.162 529.035 626.759 530.009 626.759 531.025C626.759 532.041 627.162 533.015 627.88 533.734C628.597 534.454 629.571 534.859 630.587 534.86H732.38C733.396 534.859 734.369 534.454 735.087 533.734C735.804 533.015 736.207 532.041 736.207 531.025C736.207 530.009 735.804 529.035 735.087 528.316C734.369 527.596 733.396 527.191 732.38 527.19H630.587Z" fill="#E6E6E6"/>
<path d="M801.901 527.19C800.885 527.191 799.912 527.596 799.194 528.316C798.477 529.035 798.074 530.009 798.074 531.025C798.074 532.041 798.477 533.015 799.194 533.734C799.912 534.454 800.885 534.859 801.901 534.86H903.694C904.71 534.859 905.684 534.454 906.401 533.734C907.119 533.015 907.522 532.041 907.522 531.025C907.522 530.009 907.119 529.035 906.401 528.316C905.684 527.596 904.71 527.191 903.694 527.19H801.901Z" fill="#E6E6E6"/>
<path d="M801.901 564.275C800.885 564.277 799.912 564.682 799.194 565.401C798.476 566.12 798.073 567.095 798.073 568.111C798.073 569.127 798.476 570.101 799.194 570.82C799.912 571.539 800.885 571.944 801.901 571.946H847.732C848.748 571.944 849.722 571.539 850.439 570.82C851.157 570.101 851.56 569.127 851.56 568.111C851.56 567.095 851.157 566.12 850.439 565.401C849.722 564.682 848.748 564.277 847.732 564.275H801.901Z" fill="#6C63FF"/>
</g>
</svg>
