<svg width="330" height="226" viewBox="0 0 330 226" fill="none" xmlns="http://www.w3.org/2000/svg">
<g clip-path="url(#clip0)">
<path d="M133.961 94.5852C133.961 94.5852 163.314 96.0052 165.083 106.3C166.851 116.595 130.778 107.365 130.778 107.365L133.961 94.5852Z" fill="#A0616A"/>
<path d="M87.6327 61.9249C87.6327 61.9249 92.5838 63.3449 96.474 71.865C100.364 80.3851 108.145 88.1952 108.145 88.1952L139.62 94.2302L134.315 110.205L104.254 106.3L85.5107 95.6502L87.6327 61.9249Z" fill="#575A89"/>
<path opacity="0.1" d="M87.6327 61.9249C87.6327 61.9249 92.5838 63.3449 96.474 71.865C100.364 80.3851 108.145 88.1952 108.145 88.1952L139.62 94.2302L134.315 110.205L104.254 106.3L85.5107 95.6502L87.6327 61.9249Z" fill="black"/>
<path d="M328.647 32.9921H291.513V33.702H328.647V32.9921Z" fill="#3F3D56"/>
<path d="M262.514 32.9921H144.748V33.702H262.514V32.9921Z" fill="#3F3D56"/>
<path d="M289.745 118.548H10.7134V225.404H289.745V118.548Z" fill="#3F3D56"/>
<path d="M40.9502 45.5946L44.1331 65.8298L66.0595 66.8948L63.584 37.0745L40.9502 45.5946Z" fill="#A0616A"/>
<path d="M17.7865 180.674L16.7256 225.404H49.9689L54.9201 207.654L58.8102 225.404H93.4682C93.4682 225.404 94.1755 174.284 90.2853 173.929C86.3951 173.574 17.7865 180.674 17.7865 180.674Z" fill="#2F2E41"/>
<path d="M48.0235 50.9198C58.5706 50.9198 67.1207 42.337 67.1207 31.7495C67.1207 21.1621 58.5706 12.5793 48.0235 12.5793C37.4764 12.5793 28.9263 21.1621 28.9263 31.7495C28.9263 42.337 37.4764 50.9198 48.0235 50.9198Z" fill="#A0616A"/>
<path d="M15.8411 182.626L25.7434 133.636L12.6582 68.6699L42.7945 57.3184L57.5721 55.5348L65.0011 54.1427L70.3036 55.5348C70.3036 55.5348 91.5227 60.8599 92.5837 64.7649C93.6447 68.6699 88.3399 100.62 88.3399 100.62L83.3887 126.891L94.352 174.106C94.352 174.106 48.7308 189.726 16.5484 182.626H15.8411Z" fill="#575A89"/>
<path opacity="0.1" d="M29.103 86.5975V99.7327L70.8312 99.7898L31.2249 95.4726L29.103 86.5975Z" fill="black"/>
<path opacity="0.1" d="M25.519 122.874L77.907 115.353L25.519 130.247V122.874Z" fill="black"/>
<path opacity="0.1" d="M108.675 88.3726L103.059 108.688L112.565 89.0428L108.675 88.3726Z" fill="black"/>
<path d="M63.7401 12.5238L67.2519 11.1125C67.2519 11.1125 59.909 2.99757 49.6929 3.70325L52.5662 0.527809C52.5662 0.527809 45.5426 -2.29475 39.1576 5.1145C35.801 9.00938 31.9175 13.5876 29.4966 18.7449H25.7357L27.3053 22.2144L21.8115 25.6838L27.4504 25.0606C27.1144 26.9605 27.0628 28.9001 27.2973 30.8152C27.5392 32.731 28.5131 34.4775 30.0135 35.6861C30.0135 35.6861 34.3688 26.6367 34.3688 25.2254V28.7536C34.3688 28.7536 37.8806 25.5782 37.8806 23.4613L39.7961 25.9311L40.7538 22.05L52.5662 25.9311L50.6507 22.7557L57.9935 23.8141L55.1202 19.9331C55.1202 19.9331 63.4208 24.5198 63.7401 28.4008C64.0593 32.2818 66.4889 35.9594 66.4889 35.9594C66.4889 35.9594 72.9984 17.8161 63.7401 12.5238Z" fill="#2F2E41"/>
<path d="M218.307 83.4026H82.5044V225.759H218.307V83.4026Z" fill="#D0CDE1"/>
<path d="M197.088 114.643H96.6509V128.843H197.088V114.643Z" fill="#F9A826"/>
<path d="M179.694 152.273H113.917V159.373H179.694V152.273Z" fill="#F9A826"/>
<path d="M179.822 164.699H114.044V171.799H179.822V164.699Z" fill="#F9A826"/>
<path d="M147.06 177.124H114.171V184.224H147.06V177.124Z" fill="#F9A826"/>
<path d="M198.856 212.979H183.649V220.079H198.856V212.979Z" fill="#F9A826"/>
<path d="M72.7793 101.33C72.7793 101.33 103.547 96.7153 108.145 103.46C112.742 110.205 75.6085 113.755 75.6085 113.755L72.7793 101.33Z" fill="#A0616A"/>
<path d="M16.1948 68.3149H13.9789C13.0675 68.3123 12.1888 68.6556 11.519 69.2759C9.41545 71.2365 4.96769 76.2961 3.10969 85.3551C0.634119 97.4253 -3.60971 120.856 5.93891 122.631C15.4875 124.406 78.084 115.885 78.084 115.885L73.4865 99.5553L28.219 99.9103C28.219 99.9103 28.9263 92.1002 27.5117 87.1301C26.0971 82.1601 16.1948 68.3149 16.1948 68.3149Z" fill="#575A89"/>
<path d="M144.748 47.9022C152.756 47.9022 159.248 41.3857 159.248 33.3471C159.248 25.3085 152.756 18.7919 144.748 18.7919C136.74 18.7919 130.248 25.3085 130.248 33.3471C130.248 41.3857 136.74 47.9022 144.748 47.9022Z" fill="#D0CDE1"/>
<path d="M210.881 47.9022C218.889 47.9022 225.38 41.3857 225.38 33.3471C225.38 25.3085 218.889 18.7919 210.881 18.7919C202.873 18.7919 196.381 25.3085 196.381 33.3471C196.381 41.3857 202.873 47.9022 210.881 47.9022Z" fill="#3F3D56"/>
<path d="M277.014 48.2572C274.076 48.2572 271.204 47.3828 268.761 45.7444C266.319 44.1061 264.415 41.7774 263.291 39.0529C262.167 36.3285 261.872 33.3305 262.446 30.4382C263.019 27.5459 264.433 24.8892 266.511 22.804C268.588 20.7188 271.235 19.2987 274.116 18.7234C276.997 18.1481 279.984 18.4434 282.698 19.5719C285.412 20.7004 287.732 22.6115 289.364 25.0634C290.996 27.5154 291.867 30.3981 291.867 33.3471C291.863 37.3001 290.296 41.09 287.512 43.8852C284.727 46.6804 280.952 48.2528 277.014 48.2572ZM277.014 19.1469C274.216 19.1469 271.481 19.9797 269.154 21.5401C266.828 23.1004 265.015 25.3182 263.944 27.9129C262.874 30.5076 262.593 33.3628 263.139 36.1174C263.685 38.8719 265.032 41.4022 267.011 43.3881C268.989 45.374 271.51 46.7265 274.254 47.2744C276.998 47.8223 279.842 47.5411 282.427 46.4663C285.012 45.3915 287.221 43.5715 288.776 41.2363C290.33 38.9011 291.16 36.1556 291.16 33.3471C291.155 29.5823 289.664 25.9729 287.012 23.3108C284.36 20.6486 280.764 19.1512 277.014 19.1469Z" fill="#3F3D56"/>
<path d="M343.146 48.2572C340.209 48.2572 337.337 47.3828 334.894 45.7444C332.452 44.1061 330.548 41.7774 329.424 39.0529C328.299 36.3285 328.005 33.3305 328.578 30.4382C329.151 27.5459 330.566 24.8892 332.643 22.804C334.721 20.7188 337.367 19.2987 340.249 18.7234C343.13 18.1481 346.116 18.4434 348.831 19.5719C351.545 20.7004 353.864 22.6115 355.497 25.0634C357.129 27.5154 358 30.3981 358 33.3471C357.995 37.3001 356.429 41.09 353.644 43.8852C350.86 46.6804 347.084 48.2528 343.146 48.2572ZM343.146 19.1469C340.349 19.1469 337.614 19.9797 335.287 21.5401C332.961 23.1004 331.148 25.3182 330.077 27.9129C329.006 30.5076 328.726 33.3628 329.272 36.1174C329.818 38.8719 331.165 41.4022 333.144 43.3881C335.122 45.374 337.643 46.7265 340.387 47.2744C343.131 47.8223 345.975 47.5411 348.56 46.4663C351.145 45.3915 353.354 43.5715 354.908 41.2363C356.463 38.9011 357.293 36.1556 357.293 33.3471C357.288 29.5823 355.797 25.9729 353.145 23.3108C350.493 20.6486 346.897 19.1512 343.146 19.1469Z" fill="#3F3D56"/>
<path d="M142.749 39.5393L136.465 31.1296L138.728 29.4252L143.054 35.2154L162.944 15.2506L164.944 17.2585L142.749 39.5393Z" fill="#3F3D56"/>
<path d="M294.625 225.012H5.83398V226H294.625V225.012Z" fill="#3F3D56"/>
</g>
<defs>
<clipPath id="clip0">
<rect width="358" height="226" fill="white"/>
</clipPath>
</defs>
</svg>
