<svg width="539" height="375" viewBox="0 0 539 375" fill="none" xmlns="http://www.w3.org/2000/svg">
<path d="M107.392 375C166.703 375 214.784 371.348 214.784 366.844C214.784 362.339 166.703 358.688 107.392 358.688C48.0811 358.688 0 362.339 0 366.844C0 371.348 48.0811 375 107.392 375Z" fill="#E6E6E6"/>
<path d="M82.0885 83.2059C100.778 75.2569 124.056 80.2933 146.79 83.7888C147.001 79.5558 149.565 74.4039 146.879 71.4507C143.616 67.8628 143.916 64.093 145.88 60.3014C150.902 50.6058 143.707 40.2891 136.443 31.711C134.806 29.7818 132.736 28.2661 130.403 27.2869C128.07 26.3076 125.539 25.8925 123.015 26.0752L109.559 27.0363C106.284 27.2702 103.16 28.4985 100.602 30.5569C98.045 32.6152 96.1774 35.4055 95.2493 38.5543C92.0362 42.924 90.3165 47.2817 91.3992 51.6167C86.5865 54.9055 85.7779 58.8755 87.9406 63.351C89.7744 66.1688 89.7549 68.9118 87.8572 71.5789C85.3649 74.9792 83.456 78.7706 82.2088 82.7977L82.0885 83.2059Z" fill="#2F2E41"/>
<path d="M526.228 324.181H145.313C141.926 324.181 138.677 322.836 136.282 320.441C133.887 318.045 132.541 314.797 132.541 311.409C270.622 295.362 406.109 295.362 539 311.409C539 314.797 537.654 318.045 535.259 320.441C532.864 322.836 529.615 324.181 526.228 324.181Z" fill="#2F2E41"/>
<path d="M539 312.161L132.541 311.41L179.648 232.148L179.874 231.773V57.0905C179.873 54.9702 180.291 52.8707 181.102 50.9117C181.914 48.9528 183.103 47.1729 184.602 45.6737C186.101 44.1744 187.881 42.9852 189.84 42.1739C191.799 41.3626 193.899 40.9451 196.019 40.9453H473.268C475.388 40.9451 477.488 41.3626 479.447 42.1739C481.406 42.9852 483.186 44.1744 484.685 45.6737C486.184 47.1729 487.374 48.9528 488.185 50.9117C488.996 52.8707 489.414 54.9702 489.414 57.0905V232.975L539 312.161Z" fill="#3F3D56"/>
<path d="M195.651 52.2147C194.257 52.2162 192.92 52.7708 191.934 53.7567C190.948 54.7426 190.394 56.0794 190.392 57.4737V216.747C190.394 218.141 190.948 219.478 191.934 220.464C192.92 221.45 194.257 222.004 195.651 222.006H475.89C477.284 222.004 478.621 221.45 479.607 220.464C480.593 219.478 481.147 218.141 481.149 216.747V57.4737C481.147 56.0794 480.593 54.7427 479.607 53.7568C478.621 52.7709 477.284 52.2163 475.89 52.2147H195.651Z" fill="white"/>
<path d="M196.825 243.042C196.394 243.043 195.973 243.167 195.61 243.399C195.247 243.632 194.958 243.963 194.778 244.354L180.262 275.908C180.104 276.252 180.035 276.629 180.061 277.006C180.088 277.383 180.208 277.748 180.412 278.066C180.616 278.384 180.897 278.646 181.228 278.828C181.56 279.009 181.932 279.104 182.31 279.104H487.556C487.941 279.104 488.318 279.006 488.654 278.819C488.99 278.632 489.272 278.362 489.474 278.035C489.676 277.708 489.791 277.335 489.808 276.951C489.825 276.568 489.744 276.186 489.572 275.842L473.794 244.288C473.608 243.913 473.321 243.597 472.965 243.377C472.608 243.157 472.198 243.041 471.779 243.042H196.825Z" fill="#2F2E41"/>
<path d="M334.644 49.5851C336.511 49.5851 338.025 48.0714 338.025 46.2043C338.025 44.3371 336.511 42.8235 334.644 42.8235C332.776 42.8235 331.263 44.3371 331.263 46.2043C331.263 48.0714 332.776 49.5851 334.644 49.5851Z" fill="white"/>
<path d="M304.641 285.114C304.145 285.115 303.664 285.279 303.27 285.58C302.877 285.881 302.594 286.304 302.464 286.782L298.823 300.305C298.733 300.639 298.721 300.99 298.789 301.329C298.856 301.668 299 301.988 299.211 302.262C299.421 302.537 299.692 302.759 300.002 302.913C300.312 303.066 300.654 303.145 301 303.145H370.243C370.602 303.145 370.956 303.059 371.276 302.895C371.595 302.73 371.87 302.491 372.079 302.199C372.287 301.906 372.423 301.568 372.474 301.212C372.525 300.856 372.49 300.494 372.372 300.154L367.691 286.631C367.538 286.188 367.25 285.804 366.868 285.532C366.487 285.261 366.03 285.115 365.561 285.114H304.641Z" fill="#2F2E41"/>
<path d="M489.413 229.143V232.148H179.648L179.881 231.773V229.143H489.413Z" fill="#2F2E41"/>
<path d="M480.773 105.181C509.819 105.181 533.365 81.6351 533.365 52.5903C533.365 23.5455 509.819 0 480.773 0C451.728 0 428.182 23.5455 428.182 52.5903C428.182 81.6351 451.728 105.181 480.773 105.181Z" fill="#F9A826"/>
<path d="M502.561 75.5047H458.985C458.189 75.5039 457.425 75.187 456.861 74.6236C456.298 74.0602 455.981 73.2963 455.98 72.4995V46.2043C455.981 45.4076 456.298 44.6437 456.861 44.0803C457.425 43.5169 458.189 43.2 458.985 43.1992H502.561C503.358 43.2 504.122 43.5169 504.686 44.0803C505.249 44.6437 505.566 45.4076 505.567 46.2043V72.4995C505.566 73.2962 505.249 74.0602 504.686 74.6236C504.122 75.187 503.358 75.5039 502.561 75.5047ZM458.985 46.2044V72.4995H502.564L502.561 46.2043L458.985 46.2044Z" fill="white"/>
<path d="M494.297 46.2043H467.25V34.1837C467.25 25.4771 472.938 19.1579 480.773 19.1579C488.609 19.1579 494.297 25.4771 494.297 34.1837L494.297 46.2043ZM470.255 43.1992H491.292V34.1837C491.292 27.1062 486.967 22.1631 480.774 22.1631C474.58 22.1631 470.255 27.1062 470.255 34.1837L470.255 43.1992Z" fill="white"/>
<path d="M480.773 61.6058C482.433 61.6058 483.779 60.2603 483.779 58.6006C483.779 56.9409 482.433 55.5955 480.773 55.5955C479.114 55.5955 477.768 56.9409 477.768 58.6006C477.768 60.2603 479.114 61.6058 480.773 61.6058Z" fill="white"/>
<path d="M179.115 141.596L139.079 162.881L138.572 145.144C151.64 142.962 164.072 139.164 175.568 132.981L179.755 122.636C180.211 121.509 180.953 120.52 181.907 119.766C182.861 119.012 183.995 118.519 185.197 118.335C186.399 118.152 187.628 118.284 188.764 118.719C189.9 119.154 190.903 119.877 191.674 120.816C192.804 122.191 193.368 123.944 193.254 125.719C193.139 127.495 192.354 129.16 191.057 130.378L179.115 141.596Z" fill="#FFB8B8"/>
<path d="M81.2905 264.485C80.9984 263.414 80.9364 262.293 81.1085 261.196C81.2807 260.099 81.683 259.051 82.2892 258.121L91.084 244.624C93.1642 241.432 96.3561 239.126 100.04 238.154C103.725 237.182 107.639 237.613 111.023 239.364C107.327 245.656 107.842 251.175 112.299 255.971C105.38 259.349 98.9844 263.709 93.3114 268.916C92.2757 269.622 91.0863 270.07 89.8423 270.223C88.5983 270.377 87.3357 270.23 86.1596 269.797C84.9835 269.363 83.928 268.655 83.0811 267.731C82.2341 266.807 81.6202 265.694 81.2905 264.485Z" fill="#2F2E41"/>
<path d="M180.939 246.838C179.608 249.056 177.729 250.895 175.483 252.177C173.237 253.46 170.699 254.145 168.112 254.164L109.685 254.607L107.151 239.91L132.998 232.309L111.206 215.585L135.025 187.713L178.287 228.034C180.816 230.391 182.459 233.544 182.942 236.967C183.424 240.389 182.717 243.874 180.939 246.838Z" fill="#2F2E41"/>
<path d="M100.563 347.346H86.8797C74.5941 263.136 62.0886 178.69 99.0427 147.171L142.626 154.266L137.052 191.26L112.726 219.132L100.563 347.346Z" fill="#2F2E41"/>
<path d="M112.591 366.423C111.52 366.715 110.399 366.777 109.302 366.605C108.205 366.433 107.157 366.03 106.227 365.424L91.37 363.427C88.1774 361.347 85.8713 358.156 84.8991 354.472C83.9269 350.788 84.3579 346.874 86.1084 343.489C92.4003 347.185 97.9196 346.669 102.716 342.212C106.105 349.054 111.688 348.637 117.021 354.402C117.727 355.437 118.176 356.627 118.329 357.871C118.482 359.115 118.336 360.377 117.903 361.553C117.469 362.729 116.761 363.785 115.837 364.632C114.913 365.479 113.801 366.093 112.591 366.423Z" fill="#2F2E41"/>
<path d="M132.997 90.9188L107.658 84.8375C111.867 76.2234 112.213 66.6383 110.192 56.4582L127.423 55.9514C127.963 68.6107 129.596 80.4377 132.997 90.9188Z" fill="#FFB8B8"/>
<path d="M139.962 169.524C121.516 182.094 108.482 169.954 98.536 151.225C99.918 139.764 97.6802 126.049 93.5356 111.147C91.6924 104.574 92.3805 97.5485 95.4642 91.4581C98.5479 85.3676 103.803 80.6546 110.192 78.2495L131.984 87.3714C150.488 102.454 154.13 118.791 147.188 136.022L139.962 169.524Z" fill="#F9A826"/>
<path d="M86.8797 103.588L66.6082 114.23L102.59 135.515L107.597 147.864C107.931 148.689 108.094 149.572 108.075 150.461C108.057 151.351 107.857 152.227 107.489 153.036C107.121 153.846 106.592 154.572 105.934 155.171C105.276 155.769 104.503 156.227 103.662 156.517C102.706 156.847 101.687 156.951 100.684 156.821C99.6816 156.691 98.7226 156.33 97.8825 155.768C97.0423 155.205 96.3438 154.456 95.8416 153.578C95.3395 152.701 95.0472 151.719 94.9879 150.71L94.4816 142.103L48.7489 127.012C47.2081 126.503 45.8032 125.651 44.6405 124.519C43.4779 123.387 42.5881 122.005 42.0385 120.479C41.2374 118.254 41.1966 115.826 41.9226 113.575C42.6485 111.324 44.1002 109.377 46.0505 108.039L82.8254 82.8104L86.8797 103.588Z" fill="#FFB8B8"/>
<path d="M107.151 105.615C98.6968 101.91 91.009 105.935 81.3051 109.163L79.7848 82.3036C89.4203 77.1682 98.607 75.7836 107.151 79.7698L107.151 105.615Z" fill="#F9A826"/>
<path d="M117.265 69.2556C126.2 69.2556 133.443 62.0125 133.443 53.0778C133.443 44.143 126.2 36.9 117.265 36.9C108.33 36.9 101.087 44.143 101.087 53.0778C101.087 62.0125 108.33 69.2556 117.265 69.2556Z" fill="#FFB8B8"/>
<path d="M136.619 51.0366C120.601 52.6054 108.396 49.9858 100.595 42.527V36.5202H135.26L136.619 51.0366Z" fill="#2F2E41"/>
</svg>
